# xmcd
#
# Track frame offsets: 
#        150
#        13734
#        25096
#        33656
#        46559
#        59195
#        73812
#        85389
#        97041
#        108627
#        121559
#        133597
#        144987
#        158344
#        169565
#        181859
#        192135
#        204065
#        218063
#        229855
#        241300
#
# Disc length: 3394 seconds
#
# Revision: 0
# Processed by: cddbd v1.5.1PL0 Copyright (c) Steve Scherf et al.
# Submitted via: ExactAudioCopy v0.95a4
#
DISCID=150d4015
DTITLE=Moe Bandy - I Just Started Hatin' Cheatin' Songs Today and It Was
DTITLE=Always So Easy (To Find An Unhappy Woman) 
DYEAR=1900
DGENRE=Country
TTITLE0=I Just Started Hatin' Cheatin' Songs Today
TTITLE1=Cowboys And Playboys
TTITLE2=How Long Does It Take (To Be A Stranger)
TTITLE3=Get All Your Love Together (And Come On Home)
TTITLE4=How Far Do You Think We Would Go
TTITLE5=Smoke Filled Bar
TTITLE6=This Time I Won't Cheat On Her Again
TTITLE7=Home Is Where The Hurt Is
TTITLE8=I Wouldn't Cheat On Her If She Was Mine
TTITLE9=Honky Tonk Amnesia
TTITLE10=It Was Always So Easy (To Find An Unhappy Woman)
TTITLE11=Don't Anyone Make Love At Home Anymore
TTITLE12=Somebody That Good
TTITLE13=How Can I Get You Out Of My Heart (When I Can't Get You Out O
TTITLE13=f My Mind)
TTITLE14=Loving You Was All I Ever Needed
TTITLE15=Home In San Antone
TTITLE16=I'm Looking For A New Way To Love You
TTITLE17=One Thing Leads To Another
TTITLE18=It's Better Than Going Home Alone
TTITLE19=I'm Gonna Listen To Me
TTITLE20=Bandy The Rodeo Clown
EXTD=
EXTT0=
EXTT1=
EXTT2=
EXTT3=
EXTT4=
EXTT5=
EXTT6=
EXTT7=
EXTT8=
EXTT9=
EXTT10=
EXTT11=
EXTT12=
EXTT13=
EXTT14=
EXTT15=
EXTT16=
EXTT17=
EXTT18=
EXTT19=
EXTT20=
PLAYORDER=
